<?xml version="1.0" standalone="no"?>
<!DOCTYPE svg PUBLIC "-//W3C//DTD SVG 20010904//EN"
 "http://www.w3.org/TR/2001/REC-SVG-20010904/DTD/svg10.dtd">
<svg version="1.0" xmlns="http://www.w3.org/2000/svg"
 width="334.000000pt" height="334.000000pt" viewBox="0 0 334.000000 334.000000"
 preserveAspectRatio="xMidYMid meet">
<metadata>
Created by potrace 1.14, written by Peter Selinger 2001-2017
</metadata>
<g transform="translate(0.000000,334.000000) scale(0.100000,-0.100000)"
fill="#000000" stroke="none">
<path d="M750 2379 c-273 -43 -475 -281 -473 -555 4 -353 311 -608 663 -551
152 25 328 155 394 292 84 173 83 346 -3 525 -34 73 -148 187 -227 228 -106
55 -242 79 -354 61z"/>
<path d="M2250 2380 c-13 -8 -9 -1108 4 -1113 6 -2 128 -3 271 -2 255 1 261 1
310 25 56 28 165 130 165 154 0 9 4 16 9 16 14 0 34 115 28 163 -12 97 -87
197 -190 252 -29 16 -53 29 -54 29 -1 1 11 28 27 60 70 138 19 294 -128 391
l-42 28 -196 1 c-108 0 -199 -1 -204 -4z"/>
<path d="M1731 2358 c-11 -29 -58 -143 -76 -183 -7 -16 -28 -64 -45 -105 -17
-41 -35 -84 -40 -95 -5 -11 -48 -112 -96 -225 -47 -113 -112 -266 -144 -340
-32 -74 -56 -137 -54 -139 5 -6 934 -4 940 2 3 3 1 14 -5 25 -6 11 -99 228
-207 483 -107 255 -202 478 -209 494 -7 17 -18 45 -25 63 -16 42 -28 49 -39
20z"/>
<path d="M2025 1170 c-7 -11 2 -16 43 -19 22 -2 32 2 32 12 0 16 -66 22 -75 7z"/>
<path d="M1051 1035 c0 -88 1 -95 19 -95 18 0 20 7 21 63 0 52 2 58 11 40 12
-26 38 -31 38 -9 0 8 4 17 8 20 4 2 8 -21 7 -52 0 -50 2 -57 20 -57 18 0 20 7
21 80 0 44 -2 86 -4 93 -7 21 -38 13 -50 -13 -6 -14 -15 -25 -20 -25 -5 0 -14
11 -20 25 -7 14 -20 25 -31 25 -19 0 -20 -7 -20 -95z"/>
<path d="M1253 1088 c-6 -24 -17 -67 -26 -95 -13 -50 -13 -53 5 -53 10 0 21 7
24 15 4 8 17 15 30 15 14 0 27 -7 30 -15 4 -8 15 -15 25 -15 22 0 21 5 -12
123 -17 58 -23 67 -43 67 -18 0 -25 -8 -33 -42z m47 -57 c7 -27 6 -31 -11 -31
-14 0 -18 6 -15 23 3 12 5 28 5 36 1 21 10 8 21 -28z"/>
<path d="M1380 1035 c0 -87 2 -95 19 -95 16 0 19 7 17 40 -1 52 16 52 37 0 11
-28 21 -40 36 -40 19 0 19 2 5 36 -14 32 -14 40 -1 67 26 53 -1 87 -70 87
l-43 0 0 -95z m80 55 c4 0 7 -8 6 -17 -3 -22 -36 -30 -46 -12 -12 18 0 41 17
35 8 -3 18 -6 23 -6z"/>
<path d="M1555 1073 c-9 -32 -21 -71 -26 -87 -5 -16 -9 -33 -9 -37 0 -15 38
-10 44 6 3 8 16 15 30 15 13 0 26 -7 30 -15 3 -8 14 -15 24 -15 18 0 18 3 5
53 -8 28 -19 71 -25 95 -8 35 -14 42 -34 42 -20 0 -26 -8 -39 -57z m51 -70
c-2 -3 -11 -3 -18 -1 -12 2 -13 10 -5 38 l10 35 9 -34 c5 -18 7 -35 4 -38z"/>
<path d="M1689 1095 c-3 -138 -1 -155 19 -155 16 0 18 8 17 50 -1 27 1 47 5
45 3 -2 16 -24 29 -49 15 -31 29 -46 42 -46 17 0 19 8 19 95 0 87 -2 95 -19
95 -17 0 -20 -8 -23 -52 l-3 -53 -24 53 c-30 64 -61 72 -62 17z"/>
<path d="M1845 1038 c0 -85 2 -93 20 -93 16 0 19 7 18 38 0 32 2 37 23 37 21
0 24 -5 24 -40 0 -32 4 -40 19 -40 17 0 19 9 20 95 2 89 1 95 -19 95 -17 0
-20 -6 -20 -41 0 -36 -2 -40 -22 -37 -19 2 -23 9 -23 41 0 31 -3 37 -20 37
-20 0 -21 -6 -20 -92z"/>
<path d="M2037 1123 c-6 -11 -47 -160 -47 -173 0 -6 9 -10 20 -10 11 0 20 7
20 15 0 10 10 15 30 15 20 0 30 -5 30 -15 0 -8 9 -15 20 -15 25 0 25 6 -3 105
-18 65 -27 81 -44 83 -12 2 -23 0 -26 -5z m37 -100 c6 -19 4 -23 -14 -23 -16
0 -20 4 -16 16 3 9 6 25 6 37 1 17 2 19 9 7 5 -8 12 -25 15 -37z"/>
<path d="M2157 1110 c-8 -12 -14 -44 -14 -77 0 -65 20 -93 66 -93 47 0 61 22
61 95 0 74 -14 95 -65 95 -23 0 -39 -7 -48 -20z m75 -42 c5 -50 -5 -92 -24
-96 -9 -2 -19 5 -21 15 -5 15 -3 74 2 106 0 4 10 7 20 7 14 0 20 -9 23 -32z"/>
</g>
</svg>
